<?xml version="1.0" encoding="UTF-8" standalone="no"?>
<!-- Created with Inkscape (http://www.inkscape.org/) -->

<svg
   version="1.1"
   id="svg55"
   width="1024"
   height="1024"
   viewBox="0 0 1024 1024"
   sodipodi:docname="ChatGPT Image Apr 2, 2025, 12_20_11 PM.png.svg"
   inkscape:version="1.1.2 (0a00cf5339, 2022-02-04)"
   xmlns:inkscape="http://www.inkscape.org/namespaces/inkscape"
   xmlns:sodipodi="http://sodipodi.sourceforge.net/DTD/sodipodi-0.dtd"
   xmlns="http://www.w3.org/2000/svg"
   xmlns:svg="http://www.w3.org/2000/svg">
  <defs
     id="defs59" />
  <sodipodi:namedview
     id="namedview57"
     pagecolor="#ffffff"
     bordercolor="#666666"
     borderopacity="1.0"
     inkscape:pageshadow="2"
     inkscape:pageopacity="0.0"
     inkscape:pagecheckerboard="0"
     showgrid="false"
     inkscape:zoom="1.8652344"
     inkscape:cx="543.09529"
     inkscape:cy="505.03037"
     inkscape:window-width="3840"
     inkscape:window-height="2104"
     inkscape:window-x="0"
     inkscape:window-y="0"
     inkscape:window-maximized="1"
     inkscape:current-layer="g273" />
  <g
     inkscape:groupmode="layer"
     inkscape:label="Image"
     id="g61">
    <g
       id="g273"
       transform="translate(12.406285,13.937173)">
      <path
         id="path4462"
         style="fill:#38033b;fill-opacity:1"
         d="m 528.53607,156.69865 c -195.4041,0.007 -216.9824,0.32706 -237.1055,3.51367 -55.7319,8.82549 -98.7184,49.91875 -109.7753,104.94141 -4.5241,22.51322 -4.4377,18.5079 -4.8614,229 -0.4115,204.50289 -0.1166,226.63418 3.3086,248.5 11.1057,70.89544 60.3819,113.43584 136.5742,117.90426 22.9231,1.3444 425.319,0.6381 437.3594,-0.76754 23.9223,-2.79281 38.954,-6.83334 54.5469,-14.66211 38.3272,-19.24296 62.5822,-51.63108 70.8164,-94.56445 4.6596,-24.295 4.6367,-23.12984 4.6367,-245.91016 0,-233.617 0.3162,-221.67872 -6.5762,-248.9707 -10.5698,-41.85415 -45.4079,-77.66968 -88.4238,-90.90821 -25.7836,-7.93514 -30.5844,-8.08417 -260.5,-8.07617 z m -12.4414,107.66211 c 64.6969,0.11664 129.3181,0.93974 134.4551,2.36328 18.9933,5.26333 32.8519,17.72385 39.9453,35.91407 2.5406,6.51508 2.5408,6.51562 2.834,67.76562 0.2931,61.25 0.2931,61.24948 -2.5,61.05078 -1.5362,-0.10928 -5.9982,-0.3526 -9.916,-0.54101 l -7.1231,-0.3418 -0.541,-19.70899 c -0.6111,-22.27002 -1.6183,-27.33664 -7.7891,-39.20898 -10.4345,-20.07571 -26.9989,-32.49877 -52.3652,-39.27344 -8.0251,-2.14329 -8.6092,-2.15422 -140.3086,-2.47461 l -132.25,-0.32226 0.018,-8.21485 c 0.059,-27.74222 15.456,-48.63697 40.627,-55.13086 5.4438,-1.40446 70.2171,-1.99359 134.914,-1.87695 z m -59.5586,84.79297 c 143.5,0 143.5,-10e-4 152.5,2.81055 31.436,9.82056 46.4474,30.74607 46.4844,64.79492 l 0.016,13.60742 -7.75,0.66016 c -67.7978,5.78072 -127.2809,58.12483 -144.7246,127.35547 -13.7925,54.73963 2.2863,119.25184 39.3203,157.76757 l 6.2539,6.50391 -113.3008,-0.0801 c -119.606,-0.0839 -118.2949,-0.0367 -130.3984,-4.66406 -17.7413,-6.78281 -34.6095,-26.63563 -40.1524,-47.25586 -2.7483,-10.22444 -2.6837,-263.51441 0.07,-275.25391 5.1915,-22.12876 20.7698,-38.65937 41.9571,-44.52343 5.7574,-1.5935 16.9957,-1.72266 149.7246,-1.72266 z m 212.8809,117.16211 c 80.6094,1.57544 142.5211,73.45735 127.5859,156.80273 -0.5344,2.98209 -0.3662,3.12262 9.6035,8.03516 25.7831,12.70447 26.9275,28.41057 2.6836,36.80469 -5.6399,1.95277 -19.7026,7.4416 -31.25,12.19726 -28.3292,11.66707 -29.2703,11.73166 -37.8086,2.60352 -4.3011,-4.59828 -4.8813,-6.00065 -13.7129,-33.20313 -13.4101,-41.30483 -13.3152,-40.62881 -6.6855,-47.73632 7.4861,-8.02557 13.6153,-7.9544 28.8535,0.33398 6.5727,3.575 12.4413,6.5 13.043,6.5 1.8879,0 0.3379,-24.26576 -2.1719,-34 -22.4012,-86.88123 -148.5107,-94.35155 -181.9746,-10.7793 -26.7269,66.74722 21.6585,135.72404 95.2422,135.77344 13.7657,0.009 20.4981,4.73034 21.4922,15.07617 0.9596,9.98667 -2.3496,16.46459 -10.2403,20.04883 -10.4035,4.72566 -43.3697,1.32566 -63.3437,-6.5332 -55.0632,-21.66484 -88.7863,-73.09308 -86.8985,-132.52344 2.0503,-64.54402 47.6876,-117.45533 110.0293,-127.56641 8.6748,-1.40694 17.2139,-1.99696 25.5528,-1.83398 z" />
    </g>
  </g>
</svg>
